<svg width="75" height="55" xmlns="http://www.w3.org/2000/svg"><path d="M55.908 20.059c.527 0 1.054.017 1.572.044C55.3 8.71 43.344 0 28.914 0 12.948 0 0 10.676 0 23.847c0 7.18 3.893 13.65 9.992 18.023.491.345.813.912.813 1.558 0 .212-.045.407-.098.61-.492 1.798-1.268 4.675-1.304 4.807-.063.23-.152.46-.152.7 0 .522.429.956.964.956.206 0 .375-.08.554-.177l6.331-3.62c.473-.275.982-.443 1.536-.443.286 0 .572.044.848.124a34.565 34.565 0 0 0 11.028 1.274 18.028 18.028 0 0 1-.973-5.842c0-12.021 11.805-21.758 26.369-21.758zm-17.35-7.657c2.125 0 3.857 1.708 3.857 3.815s-1.723 3.815-3.857 3.815c-2.125 0-3.858-1.708-3.858-3.815s1.733-3.815 3.858-3.815zm-19.28 7.63c-2.124 0-3.857-1.708-3.857-3.815s1.724-3.815 3.858-3.815c2.134 0 3.858 1.708 3.858 3.815s-1.733 3.815-3.858 3.815zm52.4 36.789C76.758 53.174 80 47.792 80 41.799c0-10.976-10.787-19.873-24.1-19.873-13.306 0-24.102 8.897-24.102 19.873 0 10.977 10.787 19.873 24.101 19.873 2.75 0 5.411-.39 7.867-1.089a2.39 2.39 0 0 1 .705-.106c.465 0 .885.142 1.277.363l5.278 3.01c.152.088.294.15.464.15.214 0 .42-.08.572-.23a.793.793 0 0 0 .232-.567c0-.194-.08-.39-.125-.584-.027-.106-.679-2.505-1.09-4.01a1.982 1.982 0 0 1-.08-.504 1.63 1.63 0 0 1 .679-1.284zM47.88 38.631c-1.777 0-3.214-1.426-3.214-3.179 0-1.752 1.437-3.178 3.214-3.178s3.215 1.426 3.215 3.178c0 1.753-1.447 3.178-3.215 3.178zm16.065 0c-1.777 0-3.215-1.426-3.215-3.179 0-1.752 1.438-3.178 3.215-3.178s3.214 1.426 3.214 3.178c-.009 1.753-1.446 3.178-3.214 3.178z" fill="#70B6AA" fill-rule="nonzero" opacity=".25"/></svg>